# xmcd
#
# Track frame offsets:
#	150
#	12702
#	30887
#	48960
#	69015
#	87942
#	109187
#	118412
#	129082
#	144562
#	157215
#	175472
#	193552
#	214222
#	233170
#	254750
#	263940
#	274637
#
# Disc length: 3865 seconds
#
# Revision: 0
# Processed by: cddbd v1.4PL0 Copyright (c) Steve Scherf et al.
# Submitted via: OrangeCD 4.1
#
DISCID=070f1712
DTITLE=Leroy Blankenship - For Heaven's Sake
DYEAR=1900
DGENRE=Country
TTITLE0=That's What He is to Me
TTITLE1=The Carpenter
TTITLE2=Clapping of the Nail Scarred Hands
TTITLE3=For Heaven's Sake
TTITLE4=When Dust Shall Sing
TTITLE5=Back on the Mountain
TTITLE6=What is Man
TTITLE7=The Best is Yet to Come
TTITLE8=Heavenly Musical Hall
TTITLE9=That's What He is to Me (perform track)
TTITLE10=The Carpenter (perform track)
TTITLE11=Clapping of the Nail Scarred Hands (perform track)
TTITLE12=For Heaven's Sake (perform track)
TTITLE13=When Dust Shall Sing (perform track)
TTITLE14=Back on the Mountain (perform track)
TTITLE15=What is Man (perform track)
TTITLE16=The Best is Yet to Come (perform track)
TTITLE17=Heavenly Musical Hall (perform track)
EXTD=
EXTT0=
EXTT1=
EXTT2=
EXTT3=
EXTT4=
EXTT5=
EXTT6=
EXTT7=
EXTT8=
EXTT9=
EXTT10=
EXTT11=
EXTT12=
EXTT13=
EXTT14=
EXTT15=
EXTT16=
EXTT17=
PLAYORDER=
